<svg xmlns="http://www.w3.org/2000/svg" xmlns:xlink="http://www.w3.org/1999/xlink" viewBox="0 0 576.16 174.49"><defs><style>.cls-1{fill:url(#linear-gradient);}.cls-2{fill:url(#linear-gradient-2);}.cls-3{fill:url(#linear-gradient-3);}.cls-4{fill:url(#linear-gradient-4);}.cls-5{fill:url(#linear-gradient-5);}</style><linearGradient id="linear-gradient" x1="-177.09" y1="257.17" x2="632.91" y2="-38.75" gradientUnits="userSpaceOnUse"><stop offset="0.01" stop-color="#efa649"/><stop offset="1" stop-color="#e3a149"/></linearGradient><linearGradient id="linear-gradient-2" x1="114.37" y1="159.43" x2="194.4" y2="81.55" gradientUnits="userSpaceOnUse"><stop offset="0.01" stop-color="#efa649" stop-opacity="0"/><stop offset="0.44" stop-color="#efa649"/><stop offset="0.49" stop-color="#e59f46"/><stop offset="0.58" stop-color="#ca8c3e"/><stop offset="0.69" stop-color="#9e6e30"/><stop offset="0.82" stop-color="#61431e"/><stop offset="0.96" stop-color="#140e06"/><stop offset="1"/></linearGradient><linearGradient id="linear-gradient-3" x1="314.96" y1="159.36" x2="395" y2="81.49" gradientUnits="userSpaceOnUse"><stop offset="0.01" stop-color="#efa649" stop-opacity="0"/><stop offset="0.44" stop-color="#efa649"/><stop offset="0.49" stop-color="#e29d45"/><stop offset="0.59" stop-color="#bf853a"/><stop offset="0.72" stop-color="#875e29"/><stop offset="0.89" stop-color="#3b2912"/><stop offset="1"/></linearGradient><linearGradient id="linear-gradient-4" x1="274.41" y1="19.96" x2="171.12" y2="87.02" gradientUnits="userSpaceOnUse"><stop offset="0.01" stop-color="#efa649" stop-opacity="0"/><stop offset="0.44" stop-color="#efa649"/><stop offset="0.5" stop-color="#e09b44"/><stop offset="0.61" stop-color="#b77f38"/><stop offset="0.76" stop-color="#765224"/><stop offset="0.94" stop-color="#1e1509"/><stop offset="1"/></linearGradient><linearGradient id="linear-gradient-5" x1="475.51" y1="19.96" x2="372.22" y2="87.02" xlink:href="#linear-gradient-4"/></defs><title>OOO</title><g id="Layer_2" data-name="Layer 2"><g id="Layer_1-2" data-name="Layer 1"><path class="cls-1" d="M550.65,25.55a87.35,87.35,0,0,0-123.38,0L388.39,64.43,349.52,25.55h0a87.36,87.36,0,0,0-123.39,0l-38.59,38.6-38.6-38.6A87.25,87.25,0,0,0,25.55,148.94a87.26,87.26,0,0,0,123.39,0l38.6-38.6,38.59,38.6a87.36,87.36,0,0,0,123.39,0l38.87-38.88,38.88,38.88A87.25,87.25,0,0,0,550.65,25.55ZM125.92,125.92a54.7,54.7,0,1,1,0-77.35l38.6,38.6-.08.08.08.07Zm200.58,0a54.75,54.75,0,0,1-77.35,0l-38.6-38.6.08-.07-.08-.08,38.6-38.6a54.75,54.75,0,0,1,77.35,0l38.68,38.68Zm201.14,0a54.71,54.71,0,0,1-77.36,0L411.61,87.25l38.67-38.68a54.7,54.7,0,0,1,77.36,77.35Z"/><polygon class="cls-2" points="125.92 125.92 148.94 149.09 187.53 110.34 164.52 87.32 125.92 125.92"/><polygon class="cls-3" points="326.52 125.86 349.53 149.03 388.13 110.27 365.12 87.26 326.52 125.86"/><polygon class="cls-4" points="187.53 64.07 210.55 87.25 249.15 48.49 226.13 25.48 187.53 64.07"/><polygon class="cls-5" points="388.63 64.07 411.65 87.25 450.25 48.49 427.23 25.48 388.63 64.07"/></g></g></svg>